<?xml version="1.0" encoding="utf-8"?>
<!-- Generator: Adobe Illustrator 27.9.0, SVG Export Plug-In . SVG Version: 6.00 Build 0)  -->
<svg version="1.1" id="Layer_1" xmlns="http://www.w3.org/2000/svg" xmlns:xlink="http://www.w3.org/1999/xlink" x="0px" y="0px"
	 viewBox="0 0 1080 1080" style="enable-background:new 0 0 1080 1080;" xml:space="preserve">
<g>
	<path d="M617.8,733.6c2.2,11.1,4.1,20.7,6.4,32.2c13.1,0,26.4,0.3,39.6-0.1c11.4-0.4,16.3,4.4,16.1,15.9c-0.4,41.8,4.2,38-37,38
		c-74.4,0-148.7,0-223.1,0c-18.2,0-19.7-1.5-19.7-20.2c-0.1-35.9-2.6-33.9,33.1-33.7c7.1,0,14.2,0,22.3,0
		c2.2-10.5,4.3-20.4,6.7-32.2c-5.7,0-10.4,0-15.1,0c-65.4,0-130.8,0-196.2,0c-30.2,0-44.4-14.2-44.4-44.3c0-128.1,0-256.3,0-384.4
		c0-30.3,14.2-44.5,44.3-44.5c192.7,0,385.3,0,578,0c30.3,0,44.6,14.2,44.6,44.2c0,128.1,0,256.3,0,384.4
		c0,30.8-14.1,44.7-45.4,44.7c-65,0-129.9,0-194.9,0C628.3,733.6,623.5,733.6,617.8,733.6z M851.8,646.8c0-5.6,0-9.6,0-13.6
		c0-108.8,0-217.7,0-326.5c0-20.7-4.2-24.8-25.3-24.8c-190.8,0-381.6,0-572.4,0c-21.9,0-25.9,3.9-25.9,25.6c0,108.4,0,216.8,0,325.2
		c0,4.7,0,9.4,0,14.2C436.9,646.8,643.7,646.8,851.8,646.8z M851,670c-208,0-415,0-622.9,0c0,4,0,7.1,0,10.1
		c-0.3,29.9,1.7,31.9,31.7,31.9c184.9,0,369.9-0.2,554.8,0.2C850.1,712.2,854.2,711.7,851,670z M484.2,734.1
		c-2.1,11.1-4,20.9-6,30.9c42,0,82.4,0,123.7,0c-2.2-10.8-4.2-20.7-6.3-30.9C558.2,734.1,521.8,734.1,484.2,734.1z M656.1,797.7
		c1.1-1.3,2.2-2.7,3.2-4c-3.1-2.1-6.2-6.1-9.2-6.1c-73.4-0.3-146.8-0.2-220.2-0.3c-8.7,0-9.6,3.5-6.5,10.4
		C501.3,797.7,578.7,797.7,656.1,797.7z"/>
	<path d="M539.8,701.3c-3.1,0-6.9,1.1-9.2-0.3c-4.4-2.6-8-6.6-12-10c4.1-3.8,7.5-9.1,12.3-10.8c5.1-1.9,11.9-1.8,17.1-0.1
		c5,1.6,8.9,6.5,13.3,9.9c-4.5,3.8-8.7,7.9-13.6,11.1C545.9,702.3,542.5,701.3,539.8,701.3z"/>
</g>
</svg>
