<?xml version="1.0" encoding="utf-8"?>
<!-- Generator: Adobe Illustrator 27.9.0, SVG Export Plug-In . SVG Version: 6.00 Build 0)  -->
<svg version="1.1" id="Layer_1" xmlns="http://www.w3.org/2000/svg" xmlns:xlink="http://www.w3.org/1999/xlink" x="0px" y="0px"
	 viewBox="0 0 1080 1080" style="enable-background:new 0 0 1080 1080;" xml:space="preserve">
<style type="text/css">
	.st0{fill:#FFFFFF;}
</style>
<g>
	<path class="st0" d="M702.8,539.9c0-79.6,0.1-159.3,0-238.9c0-29.5-14.9-44.3-44.2-44.3c-78.9,0-157.8,0-236.7,0
		c-29.5,0-44.5,14.6-44.5,43.9c-0.1,159.7-0.1,319.3,0,479c0,28.8,15.1,43.7,43.6,43.7c78.5,0,157.1,0,235.6,0
		c32.2,0,46.2-14.1,46.2-46.7C702.8,697.7,702.8,618.8,702.8,539.9z"/>
	<path d="M702.8,539.9c0,78.9,0,157.8,0,236.7c0,32.6-14,46.7-46.2,46.7c-78.5,0-157.1,0-235.6,0c-28.5,0-43.6-15-43.6-43.7
		c-0.1-159.7-0.1-319.3,0-479c0-29.3,15.1-43.9,44.5-43.9c78.9,0,157.8,0,236.7,0c29.2,0,44.1,14.8,44.2,44.3
		C702.8,380.6,702.8,460.3,702.8,539.9z M684.9,539.9c0-79.6,0-159.2,0-238.9c0-19.8-7-26.6-26.6-26.6c-78.9,0-157.8,0-236.7,0
		c-19.6,0-26.5,6.8-26.5,26.7c0,159.2,0,318.5,0,477.7c0,19.8,6.9,26.6,26.6,26.6c78.2,0,156.3,0,234.5,0c22.6,0,28.7-6.1,28.7-28.9
		C684.9,697.7,684.9,618.8,684.9,539.9z"/>
	<path d="M540.3,794.6c-16.4,0.2-29.6-12.7-29.9-29.1c-0.3-16.8,13.2-30.6,29.8-30.5c16.2,0.2,29.3,13.4,29.4,29.8
		C569.6,781.3,556.7,794.4,540.3,794.6z M553.4,767.9c0.1-1.7,0.1-3.4,0.2-5.1c-4.4-3.3-8.4-8.6-13.2-9.5
		c-6.8-1.2-11.7,3.7-11.9,11.1c-0.2,7.3,4,12.7,11.1,11.8C544.4,775.7,548.8,770.9,553.4,767.9z"/>
	<path d="M539.6,313.2c-8.8,0-17.8,0.9-26.5-0.4c-3.9-0.6-7.2-5.4-10.7-8.3c3.5-3,6.8-8.4,10.5-8.6c18-0.9,36.1-0.9,54.1,0
		c3.7,0.2,7.1,5.4,10.7,8.4c-3.5,3-6.7,8-10.5,8.5C558.1,314,548.8,313.2,539.6,313.2z"/>
</g>
</svg>
