<?xml version="1.0" encoding="utf-8"?>
<!-- Generator: Adobe Illustrator 27.9.0, SVG Export Plug-In . SVG Version: 6.00 Build 0)  -->
<svg version="1.1" id="Layer_1" xmlns="http://www.w3.org/2000/svg"
	xmlns:xlink="http://www.w3.org/1999/xlink" x="0px" y="0px"
	viewBox="0 0 1080 1080" style="enable-background:new 0 0 1080 1080;" xml:space="preserve">
<g>
	<path d="M481.5,751.1c3.8,26.4-11.3,45.8-32.7,61.4c-46.7,34.2-98.8,41.5-154.4,30c-4.9-1-9.9-3.1-14.2-5.7
		c-13.4-7.9-13.3-21.2,0.9-27.6c24-10.8,37.9-29.3,45.6-53.6c2.7-8.4,5.6-16.8,9.2-24.9c14.6-33.2,34.5-59.3,75.8-55.4
		c10.1-33,42.6-45.3,61.6-71c-3.1-3.3-6.4-7-9.9-10.5c-44.2-44.3-88.5-88.4-132.6-132.8c-20.8-21-25.7-47.4-13.9-71.8
		c13-26.8,40.1-43.3,68.5-37.5c13.3,2.7,27.2,10.6,37,20c45.7,44,90.1,89.3,135,134.2c3.6,3.6,7.3,7,11.6,11.1
		c3.9-3.3,7.5-6.1,10.8-9.2c52.5-48.4,105-96.9,157.6-145.2c14.2-13.1,32.4-15.9,47.8-8.2c16.6,8.3,27.1,25.7,23.9,43.6
		c-1.6,8.7-6,18-11.9,24.5C701.9,526.3,606.3,630,510.3,733.2C503.5,740.5,492.8,744.2,481.5,751.1z M485.4,718
		c2.2-2,6.2-5.1,9.5-8.7c34.3-37,68.4-74.1,102.6-111.1c59.2-64.2,118.4-128.3,177.6-192.5c6.8-7.4,10.2-14.8,1.7-23
		c-7.8-7.4-14.9-5-22,1.6C652.6,478.7,550.3,573,448.1,667.5c-2.8,2.6-5.7,6.7-5.9,10.3C441.5,690.6,470.5,718.8,485.4,718z
		 M449.6,437.8c-17.6,17.4-34.4,33.9-49.1,48.3c31.3,31.7,63.6,64.4,96.7,97.9c16.3-15,33.3-30.7,50.6-46.7
		c-1.7-2.5-2.5-4.2-3.8-5.4C512,500,479.9,468,449.6,437.8z M318.7,818.7c42.8,3.1,79.2-3.6,111.3-26.9c29.6-21.6,31.8-43,6.6-69.9
		c-5.6-6-12.7-11.1-20-14.9c-14.2-7.4-28-5.5-37.7,7.2c-8.6,11.3-15.6,24.3-20.9,37.5C348.7,774.9,341.4,799.1,318.7,818.7z
		 M426.4,413.5c-9.7-9.4-18.7-18.8-28.5-27.3c-13.3-11.6-31-10.9-44.4,1c-16.3,14.4-20.6,32.3-9,46.7c9.2,11.4,21.1,20.5,30.8,29.8
		C391.9,447.5,408.4,431.3,426.4,413.5z"/>
	<path d="M585.6,715.8c6.3-7.3,11.7-13.6,18.8-22c19,20.2,37.4,39.7,54.9,58.4c18.6-18.4,35-34.7,52.2-51.8
		c-20-19-40.5-38.4-62-58.7c7.7-9.4,13.2-15.9,20.6-24.9c16.1,16.8,29.8,34.2,46.6,47.8c48.8,39.4,64.5,96.6,83.9,151.8
		c5.4,15.2-8.9,29.3-23.9,23.5c-35.2-13.4-70-28.1-104.7-42.8c-5.9-2.5-11.4-6.6-16-11.1C632.7,763.2,609.8,740,585.6,715.8z
		 M682.7,773.3c28.5,11.7,55.5,22.9,82.5,34c0.9-1.2,1.8-2.3,2.7-3.5c-11.3-27-22.6-54-34.2-81.7C716,739.9,700.6,755.3,682.7,773.3
		z"/>
	<path d="M627.4,376.1c-3.4-9.3-7.6-18.5-9.8-28.1c-2.4-10.4-8.2-15.6-18.3-18.1c-9.3-2.3-18.2-6.3-27.3-9.5
		c-0.2-1.3-0.4-2.6-0.5-3.9c8.2-3.1,16.1-7.5,24.5-9.2c13.1-2.6,20-9.7,22.9-22.6c1.8-8.3,5.5-16.2,8.3-24.3
		c1.6-0.1,3.1-0.2,4.7-0.3c3.1,8.8,7.1,17.5,9.1,26.5c2.6,11.4,8.8,17.3,20.2,19.9c8.8,2,17.1,5.9,25.7,9c0.2,1.6,0.3,3.1,0.5,4.7
		c-7.8,2.8-15.5,6.3-23.5,8.2c-13,3-21.2,9.5-23.7,23.5c-1.5,8.3-5.7,16.1-8.7,24.1C630.1,376.1,628.7,376.1,627.4,376.1z"/>
	<path d="M772.8,232.5c3.8,19.8,14.9,29.8,34.3,33.5c-18,5.4-31.4,14.1-33.9,35c-5.6-17.9-13.7-31.4-34.5-33.8
		C756.7,261.5,769.5,252.5,772.8,232.5z"/>
</g>
</svg>